<svg width="1440" height="842" viewBox="0 0 1440 842" fill="none" xmlns="http://www.w3.org/2000/svg">
<g filter="url(#filter0_b_104_237)">
<mask id="mask0_104_237" style="mask-type:alpha" maskUnits="userSpaceOnUse" x="0" y="0" width="1440" height="842">
<path d="M0 0H1440V842H0V0Z" fill="white"/>
</mask>
<g mask="url(#mask0_104_237)">
<g filter="url(#filter1_d_104_237)">
<path fill-rule="evenodd" clip-rule="evenodd" d="M-9.47363 692.289L8.63232 722.432C25.445 753.58 60.3636 814.871 95.2823 802.814C130.201 789.752 165.12 704.346 200.038 704.346C234.957 704.346 269.875 789.752 304.794 820.9C339.713 851.043 374.631 826.928 409.55 802.814C444.469 777.695 479.387 753.58 514.306 729.465C549.224 704.346 584.143 680.232 619.062 680.232C653.98 680.232 688.899 704.346 723.818 692.289C758.736 680.232 794.948 630.998 829.867 630.998C864.785 630.998 899.704 680.232 934.623 722.432C969.541 765.637 1004.46 802.814 1039.38 777.695C1074.3 753.58 1109.22 668.174 1144.13 674.203C1179.05 680.232 1213.97 777.695 1248.89 789.752C1283.81 802.814 1318.73 729.465 1353.65 704.346C1388.56 680.232 1423.48 704.346 1458.4 747.551C1493.32 789.752 1528.24 851.043 1545.05 882.191L1563.16 912.334V912.334H1545.05C1528.24 912.334 1493.32 912.334 1458.4 912.334C1423.48 912.334 1388.56 912.334 1353.65 912.334C1318.73 912.334 1283.81 912.334 1248.89 912.334C1213.97 912.334 1179.05 912.334 1144.13 912.334C1109.22 912.334 1074.3 912.334 1039.38 912.334C1004.46 912.334 969.541 912.334 934.623 912.334C899.704 912.334 864.785 912.334 829.867 912.334C794.948 912.334 758.736 912.334 723.818 912.334C688.899 912.334 653.98 912.334 619.062 912.334C584.143 912.334 549.224 912.334 514.306 912.334C479.387 912.334 444.469 912.334 409.55 912.334C374.631 912.334 339.713 912.334 304.794 912.334C269.875 912.334 234.957 912.334 200.038 912.334C165.12 912.334 130.201 912.334 95.2823 912.334C60.3636 912.334 25.445 912.334 8.63232 912.334H-9.47363V692.289Z" fill="white"/>
</g>
</g>
</g>
<defs>
<filter id="filter0_b_104_237" x="-4" y="626.998" width="1448" height="219.002" filterUnits="userSpaceOnUse" color-interpolation-filters="sRGB">
<feFlood flood-opacity="0" result="BackgroundImageFix"/>
<feGaussianBlur in="BackgroundImageFix" stdDeviation="2"/>
<feComposite in2="SourceAlpha" operator="in" result="effect1_backgroundBlur_104_237"/>
<feBlend mode="normal" in="SourceGraphic" in2="effect1_backgroundBlur_104_237" result="shape"/>
</filter>
<filter id="filter1_d_104_237" x="-27.4736" y="621.998" width="1636.63" height="345.336" filterUnits="userSpaceOnUse" color-interpolation-filters="sRGB">
<feFlood flood-opacity="0" result="BackgroundImageFix"/>
<feColorMatrix in="SourceAlpha" type="matrix" values="0 0 0 0 0 0 0 0 0 0 0 0 0 0 0 0 0 0 127 0" result="hardAlpha"/>
<feOffset dx="14" dy="23"/>
<feGaussianBlur stdDeviation="16"/>
<feColorMatrix type="matrix" values="0 0 0 0 0 0 0 0 0 0 0 0 0 0 0 0 0 0 0.25 0"/>
<feBlend mode="normal" in2="BackgroundImageFix" result="effect1_dropShadow_104_237"/>
<feBlend mode="normal" in="SourceGraphic" in2="effect1_dropShadow_104_237" result="shape"/>
</filter>
</defs>
</svg>
