<svg width="113" height="54" viewBox="0 0 113 54" fill="none" xmlns="http://www.w3.org/2000/svg">
<g opacity="0.8">
<path d="M3.29812 47.3057C2.99131 47.3057 2.73565 47.2034 2.53111 46.9989C2.34362 46.7943 2.24988 46.5472 2.24988 46.2574V30.4316C2.24988 30.1418 2.34362 29.9032 2.53111 29.7157C2.73565 29.5112 2.98279 29.4089 3.27255 29.4089H12.2465C12.5362 29.4089 12.7834 29.5027 12.9879 29.6901C13.1925 29.8776 13.2947 30.1163 13.2947 30.406C13.2947 30.6787 13.1925 30.9088 12.9879 31.0963C12.7834 31.2838 12.5362 31.3776 12.2465 31.3776H4.19295L4.34635 31.173V37.4369L4.21852 37.1557H11.096C11.3857 37.1557 11.6329 37.2579 11.8374 37.4625C12.042 37.6499 12.1442 37.8886 12.1442 38.1783C12.1442 38.434 12.042 38.6641 11.8374 38.8686C11.6329 39.0561 11.3857 39.1499 11.096 39.1499H4.16739L4.34635 38.9198V46.2574C4.34635 46.5472 4.24409 46.7943 4.03955 46.9989C3.83502 47.2034 3.58787 47.3057 3.29812 47.3057ZM18.598 46.2574C18.598 46.5472 18.4958 46.7943 18.2912 46.9989C18.0867 47.2034 17.8396 47.3057 17.5498 47.3057C17.26 47.3057 17.0214 47.2034 16.8339 46.9989C16.6464 46.7943 16.5527 46.5472 16.5527 46.2574V29.4089C16.5527 29.1192 16.6464 28.8805 16.8339 28.693C17.0385 28.4885 17.2856 28.3862 17.5754 28.3862C17.8822 28.3862 18.1293 28.4885 18.3168 28.693C18.5043 28.8805 18.598 29.1192 18.598 29.4089V46.2574ZM32.0849 33.8831C32.3747 33.8831 32.6133 33.9854 32.8008 34.1899C33.0053 34.3774 33.1076 34.616 33.1076 34.9058V46.0529C33.1076 47.4846 32.8264 48.6692 32.2639 49.6067C31.7014 50.5612 30.9429 51.2685 29.9884 51.7287C29.051 52.1889 27.9857 52.419 26.7926 52.419C26.1279 52.419 25.4887 52.3508 24.8751 52.2145C24.2615 52.0781 23.7587 51.8992 23.3666 51.6776C23.0428 51.5242 22.8127 51.3282 22.6763 51.0895C22.557 50.868 22.54 50.6293 22.6252 50.3737C22.7445 50.0669 22.915 49.8538 23.1365 49.7345C23.3752 49.6152 23.6223 49.6152 23.878 49.7345C24.1507 49.8538 24.5427 50.0157 25.054 50.2203C25.5824 50.4419 26.1705 50.5526 26.8182 50.5526C27.7045 50.5526 28.463 50.3822 29.0936 50.0413C29.7242 49.7004 30.21 49.1976 30.5509 48.5329C30.8918 47.8852 31.0622 47.0756 31.0622 46.104V44.2888L31.369 44.928C31.0963 45.4563 30.7299 45.9165 30.2697 46.3086C29.8095 46.7006 29.2811 47.0074 28.6845 47.229C28.088 47.4505 27.4318 47.5613 26.7159 47.5613C25.7444 47.5613 24.9177 47.3568 24.2359 46.9477C23.5712 46.5216 23.0598 45.9421 22.7019 45.2092C22.361 44.4592 22.1906 43.5985 22.1906 42.6269V34.9058C22.1906 34.616 22.2843 34.3774 22.4718 34.1899C22.6763 33.9854 22.9235 33.8831 23.2132 33.8831C23.52 33.8831 23.7672 33.9854 23.9547 34.1899C24.1422 34.3774 24.2359 34.616 24.2359 34.9058V42.1667C24.2359 43.3258 24.4916 44.2036 25.0029 44.8001C25.5143 45.3796 26.3068 45.6694 27.3806 45.6694C28.0624 45.6694 28.676 45.516 29.2214 45.2092C29.7839 44.9024 30.2271 44.4848 30.5509 43.9564C30.8918 43.411 31.0622 42.8144 31.0622 42.1667V34.9058C31.0622 34.616 31.156 34.3774 31.3435 34.1899C31.531 33.9854 31.7781 33.8831 32.0849 33.8831ZM43.2115 33.8831C44.3705 33.8831 45.3079 34.1814 46.0238 34.7779C46.7567 35.3575 47.2425 36.1841 47.4811 37.2579H47.0976L47.2766 36.7977C47.4811 36.3205 47.8305 35.8603 48.3248 35.4171C48.8191 34.974 49.3901 34.6075 50.0378 34.3177C50.6855 34.028 51.3587 33.8831 52.0576 33.8831C53.1825 33.8831 54.0688 34.1302 54.7165 34.6245C55.3642 35.1018 55.8244 35.7495 56.0971 36.5676C56.3869 37.3687 56.5318 38.2721 56.5318 39.2777V46.2574C56.5318 46.5472 56.4295 46.7943 56.225 46.9989C56.0375 47.2034 55.7988 47.3057 55.5091 47.3057C55.2023 47.3057 54.9551 47.2034 54.7676 46.9989C54.5802 46.7943 54.4864 46.5472 54.4864 46.2574V39.3288C54.4864 38.6641 54.3841 38.0675 54.1796 37.5392C53.9921 36.9937 53.6768 36.5676 53.2336 36.2608C52.8075 35.937 52.2195 35.775 51.4695 35.775C50.7707 35.775 50.1315 35.937 49.552 36.2608C48.9725 36.5676 48.5123 36.9937 48.1714 37.5392C47.8305 38.0675 47.6601 38.6641 47.6601 39.3288V46.2574C47.6601 46.5472 47.5663 46.7943 47.3788 46.9989C47.1914 47.2034 46.9442 47.3057 46.6374 47.3057C46.3477 47.3057 46.1005 47.2034 45.896 46.9989C45.7085 46.7943 45.6147 46.5472 45.6147 46.2574V39.2521C45.6147 38.6044 45.521 38.0249 45.3335 37.5136C45.1631 36.9852 44.8648 36.5676 44.4387 36.2608C44.0126 35.937 43.4245 35.775 42.6746 35.775C41.9928 35.775 41.3707 35.937 40.8082 36.2608C40.2457 36.5676 39.794 36.9852 39.4531 37.5136C39.1123 38.0249 38.9418 38.6044 38.9418 39.2521V46.2574C38.9418 46.5472 38.8395 46.7943 38.635 46.9989C38.4475 47.2034 38.2089 47.3057 37.9191 47.3057C37.6294 47.3057 37.3822 47.2034 37.1777 46.9989C36.9902 46.7943 36.8965 46.5472 36.8965 46.2574V35.1103C36.8965 34.8206 36.9902 34.5819 37.1777 34.3944C37.3822 34.1899 37.6294 34.0876 37.9191 34.0876C38.2259 34.0876 38.4731 34.1899 38.6606 34.3944C38.8481 34.5819 38.9418 34.8206 38.9418 35.1103V37.0534L38.3793 37.667C38.4475 37.2238 38.618 36.7807 38.8907 36.3375C39.1804 35.8944 39.5469 35.4853 39.99 35.1103C40.4332 34.7353 40.9275 34.437 41.4729 34.2155C42.0183 33.9939 42.5979 33.8831 43.2115 33.8831ZM84.2921 34.0876C84.5989 34.0876 84.846 34.1899 85.0335 34.3944C85.221 34.5819 85.3148 34.8206 85.3148 35.1103V42.09C85.3148 43.8115 84.829 45.1495 83.8575 46.104C82.903 47.0415 81.565 47.5102 79.8435 47.5102C78.139 47.5102 76.801 47.0415 75.8295 46.104C74.875 45.1495 74.3977 43.8115 74.3977 42.09V35.1103C74.3977 34.8206 74.4915 34.5819 74.679 34.3944C74.8835 34.1899 75.1307 34.0876 75.4204 34.0876C75.7272 34.0876 75.9744 34.1899 76.1618 34.3944C76.3493 34.5819 76.4431 34.8206 76.4431 35.1103V42.09C76.4431 43.2491 76.7414 44.1269 77.3379 44.7234C77.9345 45.32 78.7697 45.6183 79.8435 45.6183C80.9514 45.6183 81.7951 45.32 82.3746 44.7234C82.9711 44.1269 83.2694 43.2491 83.2694 42.09V35.1103C83.2694 34.8206 83.3632 34.5819 83.5506 34.3944C83.7552 34.1899 84.0023 34.0876 84.2921 34.0876ZM95.6743 33.7553C96.8333 33.7553 97.7452 33.9939 98.4099 34.4711C99.0747 34.9484 99.5434 35.5876 99.8161 36.3886C100.106 37.1897 100.251 38.0846 100.251 39.0732V46.2574C100.251 46.5472 100.148 46.7943 99.944 46.9989C99.7565 47.2034 99.5178 47.3057 99.2281 47.3057C98.9383 47.3057 98.6912 47.2034 98.4866 46.9989C98.2992 46.7943 98.2054 46.5472 98.2054 46.2574V39.1243C98.2054 38.4766 98.1031 37.8971 97.8986 37.3858C97.7111 36.8574 97.3873 36.4398 96.9271 36.133C96.4839 35.8091 95.8703 35.6472 95.0863 35.6472C94.3704 35.6472 93.7142 35.8091 93.1176 36.133C92.5211 36.4398 92.0438 36.8574 91.6859 37.3858C91.3279 37.8971 91.149 38.4766 91.149 39.1243V46.2574C91.149 46.5472 91.0467 46.7943 90.8422 46.9989C90.6547 47.2034 90.4161 47.3057 90.1263 47.3057C89.8365 47.3057 89.5894 47.2034 89.3849 46.9989C89.1974 46.7943 89.1036 46.5472 89.1036 46.2574V35.1103C89.1036 34.8206 89.1974 34.5819 89.3849 34.3944C89.5894 34.1899 89.8365 34.0876 90.1263 34.0876C90.4331 34.0876 90.6803 34.1899 90.8677 34.3944C91.0552 34.5819 91.149 34.8206 91.149 35.1103V36.9255L90.6376 37.488C90.7229 37.0449 90.9189 36.6017 91.2257 36.1585C91.5325 35.6983 91.916 35.2893 92.3762 34.9313C92.8364 34.5734 93.3477 34.2922 93.9102 34.0876C94.4727 33.8661 95.0607 33.7553 95.6743 33.7553ZM103.523 34.1643H109.531C109.804 34.1643 110.025 34.2581 110.196 34.4456C110.383 34.6331 110.477 34.8546 110.477 35.1103C110.477 35.383 110.383 35.6131 110.196 35.8006C110.025 35.9711 109.804 36.0563 109.531 36.0563H103.523C103.267 36.0563 103.046 35.9625 102.858 35.775C102.671 35.5876 102.577 35.3575 102.577 35.0847C102.577 34.8291 102.671 34.616 102.858 34.4456C103.046 34.2581 103.267 34.1643 103.523 34.1643ZM106.207 30.6873C106.497 30.6873 106.736 30.7895 106.923 30.9941C107.111 31.1815 107.205 31.4202 107.205 31.7099V44.0587C107.205 44.4678 107.264 44.7746 107.383 44.9791C107.503 45.1836 107.656 45.3285 107.844 45.4137C108.048 45.4819 108.244 45.516 108.432 45.516C108.602 45.516 108.747 45.4904 108.866 45.4393C109.003 45.3711 109.156 45.337 109.327 45.337C109.497 45.337 109.65 45.4222 109.787 45.5927C109.94 45.7461 110.017 45.9506 110.017 46.2063C110.017 46.5131 109.838 46.7773 109.48 46.9989C109.122 47.2034 108.721 47.3057 108.278 47.3057C108.04 47.3057 107.741 47.2886 107.383 47.2545C107.043 47.2204 106.702 47.1097 106.361 46.9222C106.02 46.7347 105.73 46.4279 105.492 46.0018C105.27 45.5586 105.159 44.945 105.159 44.1609V31.7099C105.159 31.4202 105.261 31.1815 105.466 30.9941C105.671 30.7895 105.918 30.6873 106.207 30.6873Z" fill="white"/>
<path d="M58.2866 27.0621C58.2866 27.0621 53.8432 20.692 64.4778 18.9891C64.4778 18.9891 64.5263 7.9733 78.3577 1.29499C78.3577 1.29499 84.3256 14.67 70.4185 23.8107C70.4185 23.8107 71.4349 28.4807 76.359 28.6317C77.0351 28.6525 77.8943 28.1117 78.1104 28.2506C79.5318 29.1639 72.1972 31.9834 70.3188 31.7806L69.5564 28.2779C69.5564 28.2779 65.4703 29.1672 62.7026 24.8783C62.7026 24.8783 61.0271 22.7976 58.2866 27.0621V27.0621Z" fill="#E5E5E5"/>
<path d="M64.8692 15.1694C64.8692 15.1694 62.5962 4.72534 65.7177 2.21168C65.7177 2.21168 69.1445 3.91122 69.3234 7.54088L64.8691 15.1688L64.8692 15.1694Z" fill="black" fill-opacity="0.33"/>
<path d="M62.8552 24.3273C62.8552 24.3273 60.4176 23.5414 58.3496 27.0484C58.3496 27.0484 53.4801 20.9346 65.0151 18.6476L62.8552 24.3273Z" fill="white"/>
<path d="M57.2569 23.8738L59.5847 24.6934L58.1596 26.4786L57.2569 23.8738Z" fill="#FCEA2B"/>
<path d="M68.3588 5.91649C67.8506 3.5812 65.8446 2.79509 65.8446 2.79509C62.8502 5.8927 64.3747 12.8975 64.5536 16.5272C64.6209 17.8884 64.6086 18.4929 64.3328 18.8211C63.8727 19.3693 62.6789 19.1516 59.8925 20.3948C55.4342 22.3844 58.2866 27.0621 58.2866 27.0621C61.0269 22.7971 62.7026 24.8783 62.7026 24.8783C65.5974 29.7512 68.973 28.4049 68.973 28.4049C70.0647 30.6132 69.7353 31.9076 69.7353 31.9076C71.8678 33.2778 83.3644 27.1071 77.1986 28.0412C71.033 28.9759 70.4186 23.8112 70.4186 23.8112C72.3127 22.1452 73.8486 20.5108 75.0889 18.9315C75.0889 18.9315 75.2396 17.8706 73.437 15.206" stroke="black" stroke-width="1.06528" stroke-miterlimit="10" stroke-linecap="round" stroke-linejoin="round"/>
<path d="M64.4779 18.9896C64.1725 14.7758 69.4505 8.12479 69.4505 8.12479C69.4505 8.12479 74.8555 2.05718 78.9417 1.16788C78.9417 1.16788 80.8473 9.92406 76.8638 16.905C76.8638 16.905 76.1015 13.4023 74.68 12.489" stroke="black" stroke-width="1.06528" stroke-miterlimit="10" stroke-linecap="round" stroke-linejoin="round"/>
<path d="M65.7147 28.0058L65.8515 30.9186C65.8515 30.9186 63.9654 30.7109 63.5162 31.4268" stroke="black" stroke-width="1.06528" stroke-miterlimit="10" stroke-linecap="round" stroke-linejoin="round"/>
<path d="M65.8515 30.9186C65.8515 30.9186 67.0189 30.6645 67.1459 31.2485" stroke="black" stroke-width="1.06528" stroke-miterlimit="10" stroke-linecap="round" stroke-linejoin="round"/>
<path d="M70.3086 38.3502C70.3086 35.9968 68.4009 34.0891 66.0475 34.0891C63.6942 34.0891 61.7864 35.9968 61.7864 38.3502" stroke="black" stroke-width="2.13057"/>
<path d="M61.7864 42.6113C61.7864 44.9647 63.6942 46.8724 66.0475 46.8724C68.4009 46.8724 70.3087 44.9647 70.3087 42.6113" stroke="black" stroke-width="2.13057"/>
</g>
</svg>
